<?xml version="1.0" encoding="UTF-8" standalone="no"?>
<!-- Created with Inkscape (http://www.inkscape.org/) -->

<svg
   width="297mm"
   height="210mm"
   viewBox="0 0 1122.5197 793.70081"
   version="1.1"
   id="svg1"
   xml:space="preserve"
   inkscape:export-filename="bitmap.pdf"
   inkscape:export-xdpi="96"
   inkscape:export-ydpi="96"
   inkscape:version="1.4 (e7c3feb1, 2024-10-09)"
   sodipodi:docname="opnw.svg"
   xmlns:inkscape="http://www.inkscape.org/namespaces/inkscape"
   xmlns:sodipodi="http://sodipodi.sourceforge.net/DTD/sodipodi-0.dtd"
   xmlns="http://www.w3.org/2000/svg"
   xmlns:svg="http://www.w3.org/2000/svg"><sodipodi:namedview
     id="namedview1"
     pagecolor="#ffffff"
     bordercolor="#111111"
     borderopacity="1"
     inkscape:showpageshadow="0"
     inkscape:pageopacity="0"
     inkscape:pagecheckerboard="1"
     inkscape:deskcolor="#d1d1d1"
     inkscape:document-units="mm"
     showguides="true"
     inkscape:zoom="0.85336403"
     inkscape:cx="604.66575"
     inkscape:cy="264.83422"
     inkscape:current-layer="layer1" /><defs
     id="defs1" /><g
     inkscape:label="Layer 1"
     inkscape:groupmode="layer"
     id="layer1"><g
       id="g5"
       transform="matrix(1.0266165,0,0,1.0266165,-0.50228185,-20.806072)"><path
         id="path1-0"
         style="display:inline;opacity:1;fill:#457032;fill-opacity:1;stroke-width:0.223761"
         d="M 27.214844,-42.798829 A 639.45239,639.45239 0 0 1 18.871094,-142.2461 639.45239,639.45239 0 0 1 658.32423,-781.69924 639.45239,639.45239 0 0 1 1075.5098,-626.60939 L 938.66018,-468.92775 A 430.86615,430.86615 0 0 0 658.32423,-573.11134 430.86615,430.86615 0 0 0 227.45704,-142.2461 430.86615,430.86615 0 0 0 233.3711,-74.654299 Z"
         transform="scale(1,-1)"
         inkscape:label="path1" /><path
         style="font-weight:bold;font-size:120px;line-height:1.25;font-family:'.Al Bayan PUA';-inkscape-font-specification:'.Al Bayan PUA, Bold';text-align:center;letter-spacing:6px;text-anchor:middle;fill:#ffffff"
         d="m 151.79316,265.94979 -2.89003,-18.28869 -18.71268,-1.66999 2.57908,16.32092 -13.89014,2.19496 -3.12782,-19.79345 -21.320215,-2.02911 -2.204108,-13.94802 21.301923,1.91336 -2.41446,-15.27916 -21.301921,-1.91336 -2.24069,-14.17952 21.311071,1.97124 -2.46933,-15.62641 13.89014,-2.19496 3.01807,19.09894 18.70353,1.61212 -2.67969,-16.95755 13.83227,-2.18582 3.22842,20.43009 20.75361,1.82204 2.24069,14.17952 -20.7536,-1.82204 2.40531,15.22128 20.76275,1.87991 2.24069,14.17953 -20.76275,-1.87992 2.33215,14.75827 z m -4.96925,-32.19712 -2.45104,-15.51066 -19.02034,-1.74001 2.46019,15.56853 z m 29.2925,130.77137 q -19.61515,7.09643 -35.25238,0.0424 -15.58213,-7.07398 -22.7583,-26.90952 -7.15624,-19.78045 0.2929,-35.18676 7.50424,-15.42624 27.11939,-22.52268 19.78044,-7.15623 35.30748,-0.0623 15.58213,7.07397 22.73837,26.85442 7.1363,19.72535 -0.2929,35.18675 -7.37411,15.44148 -27.15456,22.59772 z m -30.91853,-20.53022 q 4.86301,1.73003 10.4703,1.38379 5.6624,-0.36618 12.54974,-2.8579 7.38323,-2.67113 11.94457,-6.25297 4.56133,-3.58184 6.76037,-7.49294 2.2893,-4.00606 2.4414,-8.23589 0.17203,-4.17473 -1.2632,-8.14184 -1.45517,-4.02221 -4.18344,-7.08535 -2.70833,-3.00804 -7.09068,-4.78734 -4.08222,-1.63864 -10.17487,-1.42836 -6.01763,0.24546 -13.18046,2.83685 -7.32814,2.6512 -11.9094,6.17794 -4.50624,3.5619 -6.76037,7.49293 -2.25414,3.93104 -2.46134,8.1808 -0.2072,4.24976 1.26791,8.32707 1.4751,4.0773 4.35343,7.21077 2.93343,3.11354 7.23604,4.67244 z m 88.44509,88.59568 q -5.07474,2.92903 -10.97166,3.96475 -5.84617,1.00643 -11.04863,-0.38828 -7.07261,-1.93896 -12.57819,-6.20311 -5.47629,-4.2134 -10.25062,-12.48523 l -7.0004,-12.12864 -24.6125,14.20584 -11.24751,-19.48701 75.56291,-43.61339 18.51152,32.07237 q 4.15924,7.20614 5.73172,12.8609 1.65252,5.67621 1.36268,10.9175 -0.35797,6.2954 -3.65008,11.37524 -3.26282,5.1306 -9.80924,8.90906 z m -12.08501,-19.88312 q 3.19709,-1.84529 4.48485,-4.88877 1.3385,-3.07277 0.93389,-5.88363 -0.53948,-3.74782 -2.10754,-6.699 -1.51731,-2.98047 -4.2999,-7.80148 l -1.93316,-3.34933 -22.63335,13.06351 3.22194,5.58222 q 2.87046,4.97325 5.32472,7.81885 2.48355,2.89635 5.56995,4.02404 2.70766,0.94036 5.40919,0.46354 2.78157,-0.45536 6.02941,-2.32995 z m 13.28444,116.45894 -39.79361,-48.97723 67.71318,-55.01642 39.79361,48.97723 -13.09697,10.64119 -25.67926,-31.60555 -11.68723,9.49579 23.83183,29.33176 -13.09698,10.64119 -23.83183,-29.33177 -16.73502,13.59708 25.67926,31.60554 z m 76.74254,70.55538 -16.33142,-14.25811 11.4874,-69.46441 -39.38322,45.11001 -15.53691,-13.56447 57.37927,-65.72291 20.25978,17.68777 -8.90328,58.57527 32.87073,-37.65053 15.53691,13.56447 z m 118.31266,-8.48061 -23.26894,-14.17413 -36.60889,60.09892 -19.21564,-11.7051 36.60889,-60.09891 -23.26894,-14.17414 8.77882,-14.41173 65.75352,40.05336 z m 75.90489,59.60074 q -7.66254,19.40101 -23.3,26.45453 -15.61594,6.99903 -35.23494,-0.7496 -19.5645,-7.7271 -26.18342,-23.50791 -6.5974,-15.83531 1.06513,-35.23631 7.72711,-19.5645 23.32153,-26.50903 15.61594,-6.99903 35.18044,0.72807 19.51,7.70559 26.18342,23.50792 6.69494,15.74783 -1.03216,35.31233 z m -35.85362,9.58975 q 4.51547,-2.50047 7.9671,-6.93307 3.47316,-4.48709 6.16365,-11.29924 2.88421,-7.30263 3.21805,-13.09261 0.33384,-5.78998 -1.14263,-10.02702 -1.48792,-4.36755 -4.55808,-7.28108 -3.01567,-2.89201 -6.93947,-4.44173 -3.9783,-1.57125 -8.08024,-1.55339 -4.04744,0.0394 -8.28173,2.14694 -3.93021,1.97564 -7.80499,6.6821 -3.79876,4.67348 -6.59688,11.75812 -2.86269,7.24813 -3.25102,13.01659 -0.31232,5.73548 1.14263,10.02701 1.45494,4.29154 4.50359,7.25957 3.04864,2.96802 7.08143,4.5608 4.0328,1.59277 8.28678,1.50896 4.27551,-0.13832 8.29181,-2.33195 z m 174.85837,-28.77945 -36.9618,82.4486 -24.59069,-3.92739 -6.48504,-58.59198 -24.00742,53.722 -24.5907,-3.92739 -9.44229,-89.85984 23.20204,3.70561 3.77809,61.42315 25.32572,-56.77496 22.16056,3.53928 5.62962,61.71886 23.35847,-57.08915 z m 89.81756,36.05612 q 1.2384,20.82258 -9.96313,33.81521 -11.205,12.93414 -32.26155,14.18645 -20.99805,1.24883 -33.65713,-10.26602 -12.66255,-11.57334 -13.90095,-32.39593 -1.24883,-20.99805 9.95966,-33.87369 11.205,-12.93414 32.20305,-14.18297 20.93957,-1.24535 33.65713,10.26602 12.71409,11.45288 13.96292,32.45093 z m -28.46016,23.82151 q 3.03891,-4.17215 4.29812,-9.64719 1.25573,-5.53353 0.8209,-12.84483 -0.46614,-7.83771 -2.60634,-13.22797 -2.14019,-5.39026 -5.26647,-8.60877 -3.19173,-3.33202 -7.20451,-4.67819 -3.95429,-1.34965 -8.1656,-1.09919 -4.2698,0.25394 -7.98123,2.0008 -3.65294,1.74339 -6.6027,5.44066 -2.72972,3.44939 -4.25703,9.35126 -1.47229,5.83989 -1.02007,13.44365 0.46266,7.77922 2.54436,13.17296 2.13672,5.33177 5.26648,8.60877 3.12976,3.277 7.14602,4.68166 4.01626,1.40466 8.34455,1.14725 4.32829,-0.25742 8.14974,-2.12822 3.81798,-1.92929 6.53378,-5.61265 z m 87.09146,-55.07291 q -0.78286,-3.1865 -2.65078,-5.14103 -1.86792,-1.95454 -5.37594,-2.48042 -2.44284,-0.36522 -5.44367,0.19101 -3.0148,0.49933 -6.94102,1.46392 l -7.90933,1.94316 5.60581,22.81757 6.7144,-1.64959 q 5.23495,-1.28612 8.63704,-2.66497 3.40209,-1.37885 5.34461,-3.78684 1.8427,-2.32314 2.34968,-4.68013 0.54991,-2.42788 -0.3308,-6.01268 z m 48.525,50.40564 -26.68688,6.55643 -30.73492,-25.3926 -10.0716,2.47439 7.63285,31.0683 -21.73643,5.3402 -20.8156,-84.72657 36.64467,-9.00285 q 7.51102,-1.8453 13.12637,-2.31984 5.61536,-0.47453 11.03717,1.21024 5.47872,1.6708 9.38527,5.53794 3.94947,3.79625 5.62702,10.62445 2.30663,9.38877 -0.62092,16.38297 -2.87065,6.98022 -9.9861,12.89154 z m 89.3768,-39.0029 -25.26479,11.105 -37.92232,-21.4779 -2.25772,7.96881 11.48224,26.12305 -20.59805,9.05375 -35.10688,-79.87107 20.59805,-9.05376 15.89122,36.15387 12.64566,-48.69709 23.87013,-10.49198 -14.97403,50.68057 z"
         id="text2"
         aria-label="#OPENTOWORK" /></g></g></svg>
